# xmcd CD database file
#
# Track frame offsets:
#	150
#	20515
#	49940
#
# Disc length: 935 seconds
#
# Revision: 0
# Processed by: cddbd v1.5PL3 Copyright (c) Steve Scherf et al.
# Submitted via: CDex 1.51
#
DISCID=1f03a503
DTITLE=FANATIC◇CRISIS - 火の鳥
DYEAR=1998
DGENRE=JPop
TTITLE0=火の鳥
TTITLE1=BLUE EARTH -花咲く丘で-
TTITLE2=火の鳥 [Vox Less Version]
EXTD=YEAR: 1998
EXTT0=
EXTT1=
EXTT2=
PLAYORDER=
